<?xml version="1.0" standalone="no"?>
<!DOCTYPE svg PUBLIC "-//W3C//DTD SVG 20010904//EN"
 "http://www.w3.org/TR/2001/REC-SVG-20010904/DTD/svg10.dtd">
<svg version="1.0" xmlns="http://www.w3.org/2000/svg"
 width="1181.000000pt" height="1181.000000pt" viewBox="0 0 1181.000000 1181.000000"
 preserveAspectRatio="xMidYMid meet">

<g transform="translate(0.000000,1181.000000) scale(0.100000,-0.100000)"
fill="#000000" stroke="none">
<path d="M5664 11411 c-11 -5 -78 -14 -150 -20 -411 -36 -730 -91 -1059 -181
-44 -12 -93 -26 -110 -30 -300 -79 -803 -290 -1099 -460 -48 -27 -89 -50 -91
-50 -3 0 -166 -98 -253 -153 -64 -41 -360 -255 -417 -301 -329 -270 -564 -501
-816 -803 -513 -613 -892 -1352 -1093 -2133 -8 -30 -19 -73 -25 -96 -15 -58
-51 -230 -61 -294 -41 -257 -71 -506 -85 -700 -2 -41 -10 -125 -16 -186 -9
-83 -9 -135 0 -205 6 -52 16 -155 21 -229 31 -406 84 -727 176 -1080 198 -757
584 -1501 1097 -2112 105 -126 270 -306 345 -377 230 -218 281 -264 422 -380
136 -111 397 -296 545 -386 44 -26 91 -55 105 -64 85 -54 564 -301 585 -301 2
0 28 -11 57 -24 62 -28 265 -108 323 -126 22 -7 49 -16 60 -21 11 -5 56 -20
100 -33 424 -133 701 -188 1235 -244 572 -60 1401 25 1980 203 25 8 83 26 130
40 47 14 94 29 105 34 11 4 38 14 60 21 64 20 307 117 392 156 269 124 491
243 737 397 36 22 211 140 236 159 14 10 66 49 115 86 50 37 101 77 115 89 14
12 68 57 120 101 219 184 501 469 671 677 40 50 76 92 79 95 26 21 267 358
327 455 217 355 294 501 438 830 137 312 282 804 345 1170 67 387 85 596 85
965 0 423 -26 677 -115 1130 -34 174 -143 571 -179 655 -4 11 -14 38 -21 60
-14 45 -94 254 -115 300 -8 17 -22 50 -33 75 -25 57 -185 381 -218 440 -100
181 -277 454 -411 635 -161 219 -424 513 -642 718 -335 315 -663 554 -1106
808 -142 81 -496 247 -655 306 -179 68 -259 96 -300 108 -25 7 -92 27 -150 44
-58 17 -132 38 -165 47 -33 8 -73 19 -90 24 -132 39 -481 96 -845 137 -243 28
-643 41 -686 24z m599 -222 c481 -30 1043 -150 1477 -316 144 -55 296 -116
320 -129 14 -7 90 -45 170 -83 535 -259 1034 -620 1456 -1053 568 -583 982
-1261 1243 -2038 141 -417 222 -837 256 -1320 36 -510 0 -963 -119 -1520 -76
-360 -244 -831 -418 -1175 -123 -243 -205 -385 -337 -585 -288 -436 -690 -873
-1116 -1212 -304 -242 -555 -402 -910 -582 -169 -86 -249 -122 -430 -196 -426
-173 -907 -291 -1415 -347 -198 -22 -825 -25 -1035 -5 -138 13 -414 53 -497
71 -24 5 -81 17 -128 26 -227 45 -586 155 -852 261 -145 57 -429 193 -593 282
-713 387 -1396 1018 -1850 1707 -192 292 -381 644 -480 897 -20 51 -40 102
-45 113 -4 11 -17 46 -29 78 -12 31 -30 81 -40 110 -126 339 -236 858 -272
1282 -16 181 -16 719 0 900 41 483 182 1087 341 1470 5 11 23 56 40 100 72
180 228 493 343 685 482 806 1171 1475 1987 1928 135 75 431 221 499 247 20 7
88 33 151 58 530 205 1029 314 1615 350 127 8 514 6 668 -4z"/>
<path d="M5690 11004 c-496 -23 -1005 -118 -1440 -270 -165 -57 -202 -71 -340
-129 -939 -396 -1740 -1072 -2309 -1950 -43 -66 -92 -145 -109 -175 -16 -30
-45 -82 -64 -115 -133 -234 -285 -582 -379 -867 -61 -187 -101 -340 -150 -578
-41 -201 -47 -238 -64 -380 -29 -244 -35 -358 -35 -630 0 -396 24 -646 92
-985 81 -406 166 -678 329 -1065 38 -89 162 -335 234 -465 67 -119 228 -375
269 -426 12 -15 41 -56 66 -90 222 -314 584 -689 930 -965 681 -544 1474 -898
2337 -1043 343 -58 710 -79 1076 -63 234 11 274 15 512 48 441 62 895 194
1320 382 183 81 177 78 460 232 230 125 557 356 800 564 153 131 403 380 536
534 197 228 436 565 556 782 17 30 53 96 80 145 151 272 331 713 408 1000 140
516 195 917 195 1410 0 375 -33 701 -106 1045 -171 802 -497 1492 -1013 2145
-228 288 -442 501 -806 804 -261 216 -730 505 -1045 644 -286 126 -395 167
-615 235 -347 107 -665 170 -1035 207 -146 14 -551 25 -690 19z m509 -169
c356 -24 673 -74 956 -151 188 -51 316 -93 490 -158 169 -63 169 -63 415 -178
223 -105 549 -302 770 -467 328 -243 682 -584 936 -901 194 -243 398 -558 532
-825 173 -343 275 -611 387 -1020 32 -114 74 -318 90 -430 9 -66 18 -122 20
-125 2 -3 11 -86 21 -185 25 -249 25 -721 1 -975 -10 -101 -20 -186 -22 -190
-1 -3 -11 -59 -20 -125 -53 -370 -205 -870 -380 -1250 -250 -544 -579 -1018
-1000 -1438 -446 -446 -912 -765 -1530 -1047 -201 -92 -642 -237 -850 -279
-22 -5 -83 -18 -135 -29 -52 -12 -144 -28 -205 -37 -60 -9 -117 -18 -125 -20
-58 -16 -430 -38 -655 -37 -224 0 -589 21 -645 37 -8 2 -76 13 -150 24 -219
33 -475 94 -715 172 -114 37 -188 63 -405 149 -109 42 -478 230 -605 307 -460
280 -826 582 -1162 960 -341 384 -609 796 -822 1263 -174 381 -313 852 -376
1272 -41 277 -49 406 -49 753 0 677 81 1119 335 1815 7 19 18 46 26 60 7 14
13 28 13 32 0 14 169 367 222 463 494 896 1249 1617 2163 2065 586 287 1189
449 1845 494 268 18 356 18 629 1z"/>
<path d="M5590 10628 c-96 -5 -193 -12 -215 -16 -38 -7 -40 -9 -43 -46 -4 -49
4 -82 21 -89 7 -3 44 -1 82 3 39 4 77 4 86 -1 12 -6 17 -32 22 -121 16 -286
31 -474 38 -482 11 -13 119 -8 136 6 16 13 14 120 -8 441 -7 112 -7 152 2 163
8 10 34 14 88 14 47 0 82 5 89 12 7 7 12 33 12 58 0 77 17 74 -310 58z"/>
<path d="M6269 10604 c-9 -11 -23 -35 -32 -54 -9 -19 -27 -61 -41 -93 -14 -32
-26 -60 -26 -63 0 -3 -13 -31 -29 -64 -16 -32 -32 -69 -36 -82 -4 -12 -20 -50
-35 -83 -123 -270 -123 -272 -87 -279 111 -23 115 -21 157 71 33 72 21 68 172
52 67 -7 107 -17 115 -26 6 -8 14 -36 18 -63 4 -27 14 -55 24 -64 24 -22 123
-32 138 -14 10 11 -6 87 -72 353 -47 187 -90 354 -96 372 -12 36 -22 42 -98
49 -47 5 -59 3 -72 -12z m76 -236 c53 -242 55 -224 -25 -220 -97 6 -99 10 -43
135 26 59 51 107 55 107 4 0 10 -10 13 -22z"/>
<path d="M5003 10544 c-37 -16 -39 -28 -19 -100 7 -27 21 -87 31 -134 10 -47
24 -110 31 -140 8 -30 14 -58 14 -62 0 -25 -40 9 -199 168 -97 97 -186 180
-199 185 -26 10 -111 -5 -138 -26 -18 -12 -18 -16 -2 -81 9 -38 22 -91 28
-119 6 -27 27 -122 46 -210 19 -88 40 -189 46 -225 6 -36 19 -73 28 -84 16
-17 23 -17 69 -6 74 17 77 26 58 123 -24 116 -63 288 -71 315 -5 15 -3 22 5
22 7 0 97 -84 201 -186 l189 -186 52 6 c56 8 97 28 97 50 0 7 -18 100 -41 207
-22 107 -51 244 -64 305 -42 201 -39 194 -88 193 -23 0 -57 -7 -74 -15z"/>
<path d="M6874 10509 c-11 -14 -174 -664 -174 -693 0 -31 104 -65 135 -43 11
9 31 74 60 191 24 99 45 188 47 200 7 48 32 18 65 -79 79 -231 136 -381 150
-397 8 -9 40 -22 70 -28 46 -10 58 -9 70 2 13 14 26 61 114 428 21 91 45 185
52 210 7 25 11 52 9 61 -4 19 -39 37 -91 45 -51 8 -51 8 -109 -223 -26 -103
-52 -188 -59 -190 -10 -4 -45 85 -72 182 -11 37 -65 192 -92 261 -22 57 -44
72 -119 81 -32 4 -49 1 -56 -8z"/>
<path d="M4185 10314 c-22 -8 -48 -23 -58 -33 -18 -17 -16 -24 53 -207 39
-104 77 -202 85 -219 7 -16 32 -79 55 -140 47 -123 54 -135 81 -135 29 0 107
39 113 57 5 12 -93 287 -144 408 -5 11 -30 74 -55 140 -40 105 -65 147 -84
144 -3 0 -24 -7 -46 -15z"/>
<path d="M7775 10137 c-135 -64 -268 -309 -252 -463 14 -138 138 -248 349
-309 95 -28 102 -23 185 145 40 80 72 155 73 166 0 18 -21 33 -109 78 -61 31
-117 56 -125 56 -18 0 -56 -69 -56 -100 0 -13 12 -27 31 -38 66 -37 65 -33 35
-97 -26 -58 -26 -58 -63 -52 -48 8 -113 55 -135 98 -36 69 -14 170 61 287 68
105 163 128 270 65 25 -14 56 -37 68 -49 36 -36 56 -44 78 -32 34 18 65 51 65
69 0 31 -89 107 -178 150 -75 38 -95 43 -166 46 -69 4 -88 1 -131 -20z"/>
<path d="M3794 10120 c-66 -13 -314 -141 -320 -165 -3 -13 34 -97 107 -240
176 -344 206 -399 223 -410 12 -7 48 7 152 60 211 108 261 163 251 278 -10
108 -80 177 -179 177 -27 0 -48 5 -48 10 0 6 9 28 20 50 25 49 25 90 1 138
-24 47 -56 77 -103 97 -41 16 -44 17 -104 5z m36 -167 c34 -23 40 -33 40 -70
0 -33 -32 -68 -93 -100 -29 -14 -31 -14 -45 3 -18 25 -62 111 -62 122 0 10 99
61 120 62 9 0 27 -8 40 -17z m181 -272 c37 -37 40 -88 7 -118 -24 -21 -115
-73 -129 -73 -12 0 -80 133 -74 148 6 15 122 72 148 72 10 0 32 -13 48 -29z"/>
<path d="M8718 9578 c-144 -165 -408 -487 -408 -498 0 -17 86 -90 106 -90 17
0 49 31 120 115 54 63 101 115 106 115 12 0 11 -14 -17 -198 -14 -92 -23 -177
-20 -189 3 -12 26 -38 53 -59 26 -20 74 -66 108 -102 l61 -65 49 18 c27 10 54
23 61 28 23 17 48 -4 118 -95 39 -50 71 -94 73 -99 2 -5 -15 -35 -38 -68 -48
-68 -47 -76 10 -141 l40 -45 27 32 c16 17 53 71 84 120 31 48 116 179 188 291
72 112 131 210 131 219 0 22 -70 112 -92 119 -10 3 -44 -4 -76 -16 -52 -20
-533 -188 -609 -213 -18 -6 -36 -8 -39 -4 -5 5 24 276 42 393 5 35 9 37 139
77 44 13 114 35 155 47 109 33 112 38 48 94 -56 49 -76 54 -135 32 -99 -37
-273 -89 -279 -83 -7 7 -3 13 101 137 33 40 65 79 70 87 8 11 -1 25 -37 58
-26 25 -56 45 -66 45 -11 0 -42 -26 -74 -62z m642 -787 c0 -5 -10 -22 -23 -38
-13 -15 -43 -58 -67 -95 -25 -37 -49 -67 -55 -68 -17 0 -98 111 -87 122 5 5
46 22 91 38 45 16 90 34 99 39 22 13 42 14 42 2z"/>
<path d="M2939 9580 c-47 -44 -51 -52 -46 -82 3 -18 15 -87 26 -153 12 -66 23
-132 27 -147 4 -21 2 -28 -10 -28 -8 0 -19 6 -23 14 -4 8 -44 55 -87 105 -53
60 -87 91 -101 91 -26 0 -110 -83 -103 -102 5 -12 219 -262 371 -432 34 -38
66 -75 70 -82 4 -8 17 -19 28 -25 17 -9 28 -6 59 16 22 15 46 38 55 51 19 30
23 23 -109 173 -49 56 -86 104 -83 107 3 3 66 -13 139 -36 149 -47 228 -70
243 -70 17 0 125 93 125 107 0 17 -18 24 -145 59 -221 60 -271 76 -286 94 -9
11 -20 45 -23 77 -11 98 -37 277 -42 296 -9 28 -29 20 -85 -33z"/>
<path d="M2410 9068 c-30 -35 -61 -70 -69 -79 -47 -47 -217 -253 -219 -266 -5
-21 57 -83 82 -82 13 0 42 25 75 65 30 35 59 64 63 64 8 0 212 -172 374 -317
39 -35 80 -63 91 -63 20 0 73 50 93 88 13 27 33 7 -215 223 -72 63 -152 131
-178 153 -26 21 -47 44 -47 50 0 6 25 40 55 74 30 35 55 69 55 76 0 20 -64 76
-86 76 -13 0 -41 -23 -74 -62z"/>
<path d="M4056 8660 c-83 -7 -147 -16 -236 -35 -375 -78 -759 -311 -991 -600
-174 -218 -286 -497 -310 -775 -10 -108 2 -418 17 -441 3 -5 10 -37 15 -71 61
-381 254 -818 575 -1298 93 -139 321 -445 392 -525 15 -17 47 -55 72 -85 316
-385 976 -1050 1640 -1650 58 -52 132 -120 165 -151 33 -31 80 -74 105 -95 25
-21 90 -79 145 -129 55 -50 138 -124 185 -165 47 -41 89 -80 93 -87 18 -29 15
-31 362 281 116 104 228 205 250 226 22 20 95 86 161 147 600 543 1200 1142
1530 1527 331 387 591 745 748 1029 119 215 210 415 271 592 9 28 21 59 26 70
7 18 16 47 49 175 11 42 35 179 50 277 5 39 10 147 10 240 0 185 -9 253 -62
448 -17 61 -109 251 -160 330 -228 355 -617 621 -1048 720 -41 9 -91 21 -111
26 -19 5 -104 14 -187 20 -157 11 -444 0 -535 -21 -272 -63 -275 -65 -437
-143 -170 -82 -336 -210 -474 -365 -109 -123 -259 -328 -320 -437 -9 -16 -22
-39 -29 -50 -6 -10 -22 -36 -35 -57 -12 -21 -28 -38 -36 -38 -8 0 -26 24 -41
53 -36 69 -154 249 -245 373 -103 140 -311 343 -436 427 -176 117 -329 177
-599 236 -61 14 -304 31 -400 29 -38 0 -115 -4 -169 -8z m1944 -1213 c7 -23
18 -58 25 -77 7 -19 18 -55 25 -80 7 -25 16 -54 21 -65 16 -37 39 -110 39
-123 0 -8 6 -28 14 -45 7 -18 26 -72 41 -122 15 -49 31 -98 36 -107 5 -10 9
-25 9 -34 0 -9 6 -30 14 -47 7 -18 33 -93 56 -167 23 -74 46 -144 50 -155 23
-57 40 -112 40 -127 0 -9 7 -29 15 -44 8 -16 15 -36 15 -44 0 -21 25 -89 36
-100 12 -12 706 -30 1192 -30 301 0 393 -3 390 -12 -4 -11 -89 -71 -458 -322
-117 -80 -224 -153 -515 -353 -66 -45 -152 -104 -192 -130 -76 -51 -82 -63
-59 -116 7 -18 19 -52 26 -77 7 -25 18 -61 25 -80 7 -19 25 -75 40 -125 15
-49 33 -106 40 -125 7 -19 36 -109 65 -200 29 -91 58 -181 65 -200 7 -19 18
-55 25 -80 6 -25 18 -58 25 -75 7 -16 18 -50 25 -75 7 -25 18 -61 25 -80 26
-71 64 -196 70 -232 9 -49 -3 -49 -69 -1 -28 20 -179 129 -336 242 -157 113
-310 223 -341 245 -31 23 -110 79 -175 126 -66 47 -157 113 -203 147 -46 35
-89 63 -95 63 -6 0 -40 -21 -76 -45 -36 -25 -132 -91 -213 -146 -82 -55 -185
-125 -230 -157 -127 -88 -269 -184 -425 -290 -79 -53 -186 -127 -239 -164 -52
-37 -99 -65 -104 -62 -13 7 -11 31 4 67 8 18 22 57 32 87 10 30 21 60 25 65 4
6 10 21 13 35 3 14 19 63 37 110 17 47 38 108 46 135 9 28 22 65 30 83 8 18
14 41 14 50 0 10 4 22 9 28 4 5 16 34 26 64 16 52 37 109 55 155 5 11 11 29
14 40 10 40 63 186 70 192 3 3 6 17 6 29 0 13 4 25 9 29 5 3 13 20 17 37 3 18
10 39 14 48 15 31 33 86 37 116 4 28 0 34 -51 70 -31 21 -131 93 -223 160
-418 301 -863 621 -921 662 -35 25 -59 48 -56 54 5 8 121 9 388 4 210 -3 552
-9 762 -13 l381 -6 6 24 c3 13 20 62 37 109 18 47 35 96 38 110 2 14 8 30 12
35 5 6 22 53 40 105 17 52 35 103 40 112 6 10 10 24 10 32 0 8 6 27 14 43 8
15 21 51 30 78 18 62 35 111 53 152 7 17 13 38 13 46 0 9 5 19 10 22 6 3 10
15 10 26 0 10 4 27 9 37 6 9 20 46 31 82 12 36 25 70 30 75 4 6 10 21 12 35 6
25 43 137 59 175 5 11 16 43 24 70 9 28 18 56 20 62 8 24 32 2 45 -40z"/>
<path d="M9650 8448 c-103 -59 -137 -132 -121 -253 6 -42 11 -94 11 -116 0
-71 -47 -111 -104 -90 -34 13 -76 90 -85 154 -4 29 -10 58 -15 65 -9 16 -98
16 -114 0 -18 -18 -14 -97 7 -156 58 -159 163 -245 275 -227 149 23 230 132
206 276 -16 104 -13 166 10 189 53 53 125 -14 166 -157 2 -8 21 -13 48 -13 38
0 48 4 62 25 42 65 -59 249 -168 306 -50 25 -131 24 -178 -3z"/>
<path d="M2318 8273 c-58 -89 -88 -139 -88 -146 0 -13 56 -57 72 -57 10 0 30
17 44 38 116 171 118 176 81 210 -40 38 -61 29 -109 -45z"/>
<path d="M1785 8091 c-64 -39 -87 -76 -184 -283 -17 -37 -31 -73 -31 -81 0
-20 27 -40 85 -65 28 -11 93 -40 145 -65 52 -24 127 -59 165 -77 39 -18 112
-52 163 -76 50 -24 96 -44 101 -44 16 0 34 30 89 148 83 179 97 245 66 321
-25 63 -113 121 -183 121 -48 0 -89 -14 -118 -42 -27 -25 -39 -18 -46 29 -17
101 -165 168 -252 114z m143 -187 c26 -30 28 -51 7 -101 -30 -71 -36 -73 -110
-39 -47 22 -65 36 -65 50 0 25 45 102 68 116 26 16 74 3 100 -26z m267 -80
c49 -23 61 -60 40 -124 -9 -28 -27 -62 -39 -75 l-21 -25 -68 34 c-37 18 -70
36 -74 39 -10 11 49 117 80 143 34 28 39 29 82 8z"/>
<path d="M10000 7922 c-52 -26 -131 -64 -175 -84 -238 -109 -356 -169 -361
-183 -7 -18 16 -76 46 -115 l18 -24 44 21 c24 12 88 43 143 68 503 236 475
221 475 251 0 42 -46 114 -73 113 -12 0 -65 -22 -117 -47z"/>
<path d="M10230 7558 c-19 -6 -102 -32 -185 -59 -82 -26 -197 -61 -255 -79
-58 -17 -120 -36 -137 -41 -18 -6 -37 -18 -42 -26 -11 -20 12 -110 33 -132 17
-16 10 -18 202 46 39 12 77 23 85 23 11 0 26 -33 48 -102 18 -57 36 -113 42
-126 20 -50 20 -50 -170 -109 -52 -16 -99 -37 -105 -46 -16 -25 21 -126 48
-133 12 -2 57 7 101 21 44 14 177 55 295 91 262 78 297 91 304 110 8 21 -26
115 -45 127 -16 10 -85 -7 -225 -55 -17 -6 -38 -8 -47 -5 -13 5 -35 65 -78
214 -6 23 -9 47 -7 55 3 7 27 19 54 27 153 44 203 62 208 79 3 10 -2 42 -12
72 -15 50 -20 55 -47 57 -16 1 -46 -3 -65 -9z"/>
<path d="M1456 7458 c-8 -18 -17 -52 -21 -74 -6 -40 -4 -44 53 -110 33 -38 87
-96 121 -129 34 -33 61 -65 61 -72 0 -13 -32 -18 -43 -6 -7 6 -167 51 -219 60
-34 6 -56 -26 -64 -93 -7 -58 -2 -62 106 -89 36 -9 115 -29 175 -45 61 -16
153 -40 206 -54 53 -13 122 -32 153 -41 69 -20 80 -14 101 57 16 54 9 82 -22
92 -44 13 -143 39 -196 51 -33 7 -63 17 -69 23 -13 13 -2 32 19 32 16 0 136
35 264 76 82 27 85 30 108 119 15 57 14 75 -7 75 -9 0 -105 -29 -211 -65 -107
-36 -201 -65 -210 -64 -9 0 -36 24 -60 52 -79 92 -215 237 -224 237 -4 0 -14
-15 -21 -32z"/>
<path d="M10131 6130 c-24 -71 -49 -134 -56 -140 -8 -7 -56 -8 -144 -4 -162 9
-166 2 -43 -84 48 -34 99 -73 114 -87 l27 -25 -41 -112 c-22 -62 -43 -124 -46
-137 l-5 -25 30 20 c27 17 152 104 204 143 17 12 26 7 90 -40 40 -29 90 -68
112 -87 22 -18 44 -29 48 -25 4 4 -12 68 -37 141 -24 74 -42 138 -39 143 3 4
55 42 115 84 61 42 110 80 110 86 0 5 -59 9 -137 9 -76 0 -143 4 -150 8 -9 5
-48 117 -89 250 -9 30 -23 4 -63 -118z"/>
<path d="M1594 6193 c-3 -16 -23 -75 -43 -133 l-36 -105 -143 -3 c-78 -1 -142
-6 -142 -10 0 -4 45 -41 100 -82 146 -107 137 -87 91 -221 -21 -63 -42 -122
-46 -131 -10 -26 17 -23 52 5 45 37 173 128 188 133 7 3 57 -28 110 -68 54
-40 103 -77 111 -83 27 -19 24 6 -15 132 -23 71 -41 134 -41 139 0 6 50 47
110 90 61 43 110 82 110 86 0 5 -62 8 -139 8 -99 0 -141 4 -149 13 -5 6 -27
67 -48 135 -38 123 -57 149 -70 95z"/>
<path d="M9594 4590 c-182 -72 -302 -340 -234 -523 27 -71 55 -108 131 -168
110 -89 250 -140 380 -140 68 0 89 5 143 31 77 36 141 103 184 193 44 90 56
147 49 230 -10 131 -85 229 -242 317 -132 74 -310 100 -411 60z m191 -184
c186 -50 312 -176 291 -289 -9 -50 -64 -127 -106 -149 -104 -55 -340 28 -425
150 -41 59 -42 136 -3 203 32 55 46 67 95 85 49 17 86 17 148 0z"/>
<path d="M1937 4510 c-110 -29 -248 -104 -316 -171 -126 -125 -141 -259 -52
-446 63 -130 147 -233 191 -233 21 0 328 146 353 168 9 8 17 23 17 33 0 29
-109 247 -132 263 -19 13 -25 13 -60 -5 -21 -11 -48 -29 -59 -40 -19 -19 -19
-19 6 -69 14 -27 25 -54 25 -60 0 -11 -112 -70 -134 -70 -22 0 -76 103 -83
158 -12 108 88 212 263 272 100 35 184 20 240 -42 36 -39 73 -124 80 -182 9
-75 20 -88 83 -94 41 -4 56 -1 72 14 18 16 20 26 15 73 -23 195 -152 381 -297
430 -75 25 -121 25 -212 1z"/>
<path d="M9197 3960 c-18 -22 -42 -55 -52 -74 l-19 -35 62 -138 c34 -76 62
-144 62 -152 0 -10 -9 -12 -37 -8 -92 15 -274 27 -287 20 -16 -9 -76 -85 -94
-119 -21 -39 -2 -47 135 -56 70 -4 183 -12 250 -18 l122 -10 160 -115 c87 -63
166 -115 174 -115 18 0 85 74 98 108 15 38 10 42 -197 189 -55 40 -107 80
-115 90 -12 14 -88 187 -139 318 -21 56 -55 131 -63 143 -15 19 -23 15 -60
-28z"/>
<path d="M2505 3837 c-45 -30 -236 -159 -527 -356 -58 -40 -109 -79 -112 -87
-6 -17 153 -259 219 -332 81 -90 155 -115 252 -87 112 33 190 150 163 244 -11
38 7 50 46 32 39 -17 120 -13 163 8 89 46 133 136 111 226 -17 68 -40 110
-127 240 -114 168 -109 165 -188 112z m94 -259 c46 -70 48 -121 6 -154 -44
-35 -87 -32 -132 10 -21 19 -46 47 -55 64 -17 28 -17 30 0 45 36 33 118 86
132 86 8 0 30 -23 49 -51z m-282 -223 c24 -38 43 -81 43 -95 0 -33 -24 -66
-60 -85 -39 -20 -62 -19 -94 6 -37 29 -108 127 -103 142 7 21 131 106 152 104
12 -1 35 -27 62 -72z"/>
<path d="M2685 3014 c-168 -157 -305 -293 -305 -302 0 -19 102 -122 121 -122
8 0 32 17 54 38 22 20 148 138 280 261 276 257 295 276 295 295 0 24 -94 116
-118 116 -15 0 -118 -90 -327 -286z"/>
<path d="M8529 3149 c-30 -30 -49 -59 -49 -73 0 -16 24 -45 73 -91 39 -37 170
-163 291 -279 120 -116 225 -215 232 -219 25 -14 50 1 114 71 35 37 105 111
157 164 l94 98 -15 28 c-15 28 -76 82 -94 82 -5 0 -55 -47 -111 -105 -57 -58
-107 -105 -111 -103 -8 3 -47 39 -349 330 -84 81 -160 148 -168 148 -8 0 -37
-23 -64 -51z"/>
<path d="M8301 2930 c-28 -22 -51 -47 -51 -56 0 -12 176 -270 312 -458 40 -56
40 -127 -2 -184 -44 -61 -125 -98 -189 -86 -43 9 -88 54 -172 174 -183 265
-232 332 -245 337 -25 9 -64 -7 -104 -43 -22 -20 -40 -45 -40 -55 0 -10 44
-80 98 -156 54 -76 125 -176 157 -223 77 -113 109 -149 164 -185 41 -27 52
-30 131 -30 77 0 92 3 161 36 192 92 304 270 258 410 -14 42 -255 401 -347
517 -43 53 -65 54 -131 2z"/>
<path d="M3394 2922 c-23 -15 -73 -94 -68 -107 3 -7 41 -39 85 -72 43 -32 79
-64 79 -71 0 -7 -90 -132 -200 -278 -124 -164 -200 -274 -200 -288 0 -33 88
-106 128 -106 11 0 27 10 35 23 8 13 68 94 133 180 66 86 151 199 189 251 39
53 76 96 83 96 7 0 41 -22 75 -48 110 -86 119 -87 167 -14 35 53 35 55 14 76
-35 36 -483 366 -496 366 -7 0 -18 -4 -24 -8z"/>
<path d="M3982 2528 c-5 -7 -37 -69 -70 -138 -33 -69 -110 -228 -171 -354 -73
-149 -111 -239 -109 -255 3 -23 27 -38 210 -128 114 -56 214 -100 223 -97 19
8 67 107 60 125 -3 8 -64 44 -135 79 -72 35 -130 69 -130 74 0 9 14 39 187
395 57 118 103 224 101 235 -2 13 -22 31 -53 48 -54 30 -97 35 -113 16z"/>
<path d="M7613 2485 c-28 -13 -56 -32 -62 -43 -6 -11 -22 -98 -36 -193 -15
-96 -29 -194 -33 -218 -4 -24 -12 -46 -19 -48 -7 -3 -31 13 -55 34 -24 22 -79
68 -123 103 -44 36 -102 84 -129 107 -55 49 -74 52 -157 22 -103 -38 -102 -32
-24 -231 37 -95 78 -202 92 -238 13 -36 35 -92 48 -125 13 -33 38 -98 56 -145
40 -103 45 -110 76 -110 38 0 122 40 128 61 7 20 -6 57 -112 324 -60 151 -70
185 -57 185 3 0 58 -44 122 -98 179 -150 174 -147 221 -134 21 7 44 18 50 26
11 13 42 190 56 318 11 102 17 95 101 -122 31 -80 65 -170 76 -200 30 -82 47
-110 66 -110 27 0 111 34 129 53 20 20 26 1 -89 297 -44 113 -102 264 -130
335 -69 182 -65 175 -107 174 -20 0 -59 -11 -88 -24z"/>
<path d="M4624 2236 c-64 -16 -111 -44 -162 -100 -121 -131 -181 -404 -123
-557 58 -152 237 -249 437 -237 170 11 288 132 345 355 28 112 30 208 4 292
-37 122 -157 217 -311 246 -89 18 -121 18 -190 1z m197 -171 c117 -41 154
-152 110 -322 -46 -179 -147 -266 -267 -234 -131 35 -182 152 -138 321 22 86
41 129 79 176 59 71 127 90 216 59z"/>
<path d="M6442 2139 c-191 -28 -311 -137 -338 -308 -10 -62 -10 -96 1 -183 24
-184 102 -316 224 -375 51 -26 66 -28 166 -28 127 0 191 17 271 73 102 71 144
165 144 322 0 268 -119 459 -310 497 -73 14 -72 14 -158 2z m121 -173 c85 -36
144 -155 154 -307 5 -78 3 -92 -20 -142 -37 -81 -120 -125 -212 -111 -86 12
-148 91 -180 228 -39 169 3 293 111 331 50 18 106 19 147 1z"/>
<path d="M5553 2090 c-123 -26 -222 -108 -263 -218 -62 -161 -47 -424 29 -530
79 -111 243 -163 452 -142 101 10 142 24 157 53 12 23 35 378 26 402 -9 21
-26 24 -172 31 -160 8 -161 7 -163 -81 -2 -67 6 -75 72 -75 62 0 70 -12 62
-94 -5 -61 -9 -69 -32 -78 -34 -13 -114 -2 -163 23 -90 46 -133 171 -109 318
7 42 21 94 30 116 23 52 81 102 127 111 56 10 185 -2 226 -22 49 -23 76 -11
108 49 l24 46 -24 26 c-49 52 -272 90 -387 65z"/>
</g>
</svg>
